<?xml version="1.0" standalone="no"?>
<!DOCTYPE svg PUBLIC "-//W3C//DTD SVG 20010904//EN"
 "http://www.w3.org/TR/2001/REC-SVG-20010904/DTD/svg10.dtd">
<svg version="1.0" xmlns="http://www.w3.org/2000/svg"
 width="146.000000pt" height="146.000000pt" viewBox="0 0 146.000000 146.000000"
 preserveAspectRatio="xMidYMid meet">
<metadata>
Created by potrace 1.11, written by Peter Selinger 2001-2013
</metadata>
<g transform="translate(0.000000,146.000000) scale(0.100000,-0.100000)"
fill="#000000" stroke="none">
<path d="M22 1448 c-17 -17 -17 -1419 0 -1436 17 -17 1409 -17 1426 0 17 17
17 1419 0 1436 -17 17 -1409 17 -1426 0z m917 -105 c22 -84 33 -222 28 -338
-5 -105 -13 -149 -52 -290 -4 -16 6 -26 52 -53 77 -44 148 -106 139 -120 -9
-14 -58 -9 -170 19 -43 11 -79 18 -80 17 -2 -2 -15 -25 -31 -53 -84 -147 -266
-326 -427 -419 l-47 -27 -16 37 c-20 48 -20 48 18 66 58 28 190 133 257 204
59 63 151 188 165 225 4 11 -43 42 -172 113 -218 121 -261 148 -246 153 7 3
114 -30 239 -72 124 -42 228 -74 231 -71 3 2 14 38 25 78 35 127 36 347 2 515
-6 30 -4 33 27 42 19 5 37 10 41 10 4 1 12 -16 17 -36z"/>
</g>
</svg>
